<svg xmlns="http://www.w3.org/2000/svg" viewBox="0 0 100 100" width="100px" height="100px"><path fill="#fff" d="M19.8 55.4A.9.9 0 1 0 19.8 57.199999999999996.9.9 0 1 0 19.8 55.4zM78.8 30.7A.7.7 0 1 0 78.8 32.1.7.7 0 1 0 78.8 30.7z"/><path fill="#f1bc19" d="M76.2 11.5A.9.9 0 1 0 76.2 13.3.9.9 0 1 0 76.2 11.5zM20.3 63.1A.9.9 0 1 0 20.3 64.9.9.9 0 1 0 20.3 63.1z"/><path fill="#f9dbd2" d="M49.1 12.200000000000003A37.4 37.4 0 1 0 49.1 87A37.4 37.4 0 1 0 49.1 12.200000000000003Z"/><path fill="#f1bc19" d="M81.6 10.6A4 4 0 1 0 81.6 18.6A4 4 0 1 0 81.6 10.6Z"/><path fill="#ee3e54" d="M85.6 21.700000000000003A1.9 1.9 0 1 0 85.6 25.5A1.9 1.9 0 1 0 85.6 21.700000000000003Z"/><path fill="#fbcd59" d="M76.7 74.19999999999999A1.9 1.9 0 1 0 76.7 78 1.9 1.9 0 1 0 76.7 74.19999999999999zM13.5 59.1A4 4 0 1 0 13.5 67.1 4 4 0 1 0 13.5 59.1z"/><path fill="#ee3e54" d="M23.7 85.3A1.9 1.9 0 1 0 23.7 89.10000000000001A1.9 1.9 0 1 0 23.7 85.3Z"/><path fill="#fff" d="M75.3 28.099999999999998A1.8 1.8 0 1 0 75.3 31.7 1.8 1.8 0 1 0 75.3 28.099999999999998zM17.2 48.5A2.5 2.5 0 1 0 17.2 53.5 2.5 2.5 0 1 0 17.2 48.5z"/><path fill="#e5ac80" d="M67.6,70.8c-0.4-2.1-1.3-3.4-3.3-4l-0.3-0.1l-0.6-0.2c-1.3-0.5-8.7-3.3-8.7-3.3 c-0.6-0.2-1-0.6-1.2-1.1c-0.2-1-0.3-1.9-0.2-2.9c-1.6,0.6-3.3,1-5,1.4c-1.9,0.2-6-2.3-6-2.3s-0.1,3-0.2,3.7 c-0.2,0.6-0.7,1-1.3,1.1l-7.1,2.6c-0.8,0.2-1.5,0.5-2.2,0.9c-1.5,1-2.6,2.4-3.2,4.2c0,0-0.5,3.3-0.5,3.4c0,0.5-0.1,1-0.1,1.5 c7.8,5.3,14,6.7,24.7,6.3c4.9-0.2,12.1-2.6,15.9-4.5C67.9,73.3,67.6,70.8,67.6,70.8z"/><path fill="#ee3e54" d="M64,66.7l-0.3-0.1l-0.6-0.2c-0.8-0.3-3.9-1.5-6.2-2.3h-0.1c-2.5,1.3-6.1,3.2-9.4,3.2 S40.8,65.4,38,64l-0.3,0.1l-4.4,1.6c-0.8,0.2-1.5,0.5-2.2,0.9c-1.5,1-2.6,2.4-3.2,4.2c0,0-0.5,3.3-0.5,3.4c0,0.5-0.1,5.4-0.1,6 c7.8,5.3,14,6.7,24.7,6.3c4.9-0.2,12.1-2.6,15.9-4.5c-0.2-4.2-0.6-11.2-0.6-11.2C67,68.6,66.1,67.3,64,66.7z"/><path fill="#bc2841" d="M34.4 84.5c-.2 0-.3-.1-.3-.3v-4c0-.2.1-.3.3-.3s.3.1.3.3v4C34.6 84.4 34.5 84.5 34.4 84.5zM60.7 85.2c-.2 0-.3-.1-.3-.3v-4.7c0-.2.1-.3.3-.3s.3.1.3.3v4.7C61 85.1 60.8 85.2 60.7 85.2z"/><path fill="#edbc94" d="M59.9,44.5h-0.4c-1,0-1.2,0.3-1.2-0.3c0.1-1-0.1-5.3-0.1-5.5c0-4.4-4.7-8-10.5-8.2h-0.2 c-5.8,0.2-10.5,3.8-10.5,8.2c0,0.2-0.2,4.5-0.1,5.5c0,0.6-0.2,0.2-1.2,0.3h-0.4c-1,0-1.8,0.6-2.1,1.5c0.1,0.1,0.6,3.7,1.4,5.1 c0.4,0.8,1.1,0.9,1.8,1.4c0.3,0.2,0.5,0.6,0.6,1c0.5,1.6,1.4,2.9,2.7,4c0.6,0.6,4.5,4.7,7.9,4.5s7.3-3.9,7.9-4.5 c1.2-1.1,2.2-2.4,2.7-4c0.1-0.4,0.3-0.8,0.6-1c0.7-0.5,1.4-0.6,1.8-1.4c0.8-1.4,1.3-5,1.4-5.1C61.7,45.1,60.8,44.5,59.9,44.5z"/><path fill="#512c2b" d="M47.7 52.4c.7 0 1.3-.3 1.8-.8 0 0 0-.1 0-.2 0 0 0 0 0 0l0 0c0 0-.1 0-.2 0 0 0 0 0 0 0-.4.4-1 .7-1.6.6-.6 0-1.2-.2-1.6-.6 0 0-.1 0-.1 0 0 0 0 0-.1 0 0 0 0 .1 0 .2 0 0 0 0 0 0C46.4 52.1 47 52.4 47.7 52.4zM45.5 42.2l.4-.8c-1.9-.4-3.8-.4-5.7.2l.5.8C42.4 41.8 44 41.8 45.5 42.2zM54.7 42.2l.4-.8c-1.9-.4-3.8-.4-5.7.2l.5.8C51.5 41.8 53.2 41.8 54.7 42.2zM42.9 43.3c-.4 0-.8.3-1 .7 0 0 .1 0 .1-.1.4 0 .7.3.7.7 0 .4-.3.7-.7.7-.1 0-.2 0-.3-.1.1.6.6 1.1 1.2 1.1.9-.2 1.4-1.1 1.2-2C43.9 43.9 43.5 43.4 42.9 43.3L42.9 43.3zM52.5 43.3c-.4 0-.7.2-.9.5.1 0 .2 0 .2 0 .4 0 .7.3.7.7 0 .4-.3.7-.7.7-.2 0-.4-.1-.5-.3-.2.7.3 1.4 1 1.5.7.2 1.4-.3 1.5-1 0-.2 0-.4 0-.6C53.8 44.2 53.3 43.4 52.5 43.3z"/><path fill="#472b29" d="M48.8,87.2c-8.9,0-14.6-1.8-21.4-6.4c-0.1-0.1-0.2-0.2-0.2-0.4c0-0.1,0-0.4,0-0.9 c0-2.2,0.1-6.8,0.6-8.6c0.4-1.9,1.6-3.5,3.4-4.3c0.7-0.4,1.5-0.7,2.3-0.9l7.1-2.6c0.5-0.1,0.9-0.4,1-0.9c0-0.3,0.1-1.2,0.1-2 c-0.7-0.5-1.5-1.1-2.1-1.6c-1.3-1.2-2.3-2.7-2.8-4.3c0-0.4-0.2-0.7-0.4-0.9c-0.2-0.2-0.4-0.3-0.6-0.4c-0.5-0.3-0.9-0.5-1.3-1.2 c-0.8-1.7-1.3-3.5-1.4-5.4c0,0,0-0.1,0-0.1c0.3-1.1,1.3-1.9,2.5-1.9h0.4c0.3,0,0.6,0,0.8,0c-0.1-1,0-3.8,0.1-5c0-0.3,0-0.5,0-0.5 c0-4.7,4.8-8.6,10.9-8.8h0.2c6.1,0.2,10.9,4.1,10.9,8.8c0,0,0,0.2,0,0.5c0,1.2,0.1,4,0.1,5c0.2,0,0.4-0.1,0.8-0.1h0.4 c1.2,0,2.2,0.8,2.5,1.9c0,0,0,0.1,0,0.1c-0.2,1.9-0.7,3.7-1.5,5.4c-0.4,0.7-0.8,0.9-1.3,1.2c-0.2,0.1-0.4,0.2-0.6,0.4 c-0.2,0.2-0.4,0.5-0.4,0.8c-0.5,1.8-1.5,3.2-2.8,4.4c-0.7,0.6-1.5,1.2-2.3,1.8c0,0.7,0.1,1.3,0.3,2c0.2,0.4,0.5,0.7,1,0.8 c0.3,0.1,7.5,2.8,8.7,3.3l0.9,0.4c2,0.6,3.1,1.9,3.6,4.3c0,0,0,0,0,0.1c0,0,0.3,7,0.5,11.2c0,0.2-0.1,0.3-0.2,0.4 c-4,2-11.3,4.4-16.1,4.6C51,87.1,49.9,87.2,48.8,87.2z M27.9,80.2c7.4,5,13.6,6.5,24.3,6.1c4.5-0.2,11.5-2.4,15.5-4.4 c-0.2-4-0.5-10.4-0.5-10.9c-0.4-2.1-1.3-3.1-3.1-3.7l-1-0.4c-1.2-0.5-8.6-3.2-8.7-3.3c-0.6-0.2-1.2-0.7-1.5-1.3 c-0.3-0.8-0.3-1.6-0.3-2.5c0-0.1,0.1-0.2,0.2-0.3c0.8-0.6,1.6-1.2,2.4-1.8c1.2-1.1,2.1-2.4,2.6-3.9c0-0.4,0.3-0.9,0.7-1.2 c0.2-0.2,0.5-0.3,0.7-0.5c0.4-0.2,0.7-0.4,1-0.9c0.7-1.6,1.2-3.3,1.4-5c-0.2-0.7-0.9-1.2-1.7-1.2h-0.4c-0.3,0-0.5,0-0.7,0.1 c-0.3,0-0.5,0.1-0.7-0.1c-0.2-0.2-0.2-0.5-0.2-0.6c0.1-0.8,0-3.9-0.1-5.1c0-0.3,0-0.5,0-0.5c0-4.3-4.4-7.8-10.1-8h-0.2 c-5.6,0.2-10.1,3.7-10.1,8c0,0,0,0.2,0,0.5c0,1.2-0.1,4.2-0.1,5.1c0,0.3,0,0.5-0.2,0.6c-0.2,0.2-0.4,0.1-0.7,0.1 c-0.2,0-0.4-0.1-0.7,0l-0.4,0c-0.8,0-1.4,0.5-1.7,1.2c0.2,1.7,0.6,3.4,1.3,5c0.2,0.4,0.6,0.6,1,0.8c0.2,0.1,0.5,0.3,0.7,0.5 c0.4,0.3,0.7,0.8,0.7,1.3c0.5,1.5,1.3,2.8,2.5,3.9c0.7,0.6,1.5,1.2,2.2,1.7c0.1,0.1,0.2,0.2,0.2,0.3c0,1-0.1,2.1-0.2,2.5 c-0.3,0.8-0.9,1.3-1.6,1.5l-7.1,2.6c-0.8,0.2-1.5,0.5-2.1,0.9c-1.5,0.8-2.6,2.2-3,3.8c-0.5,1.7-0.5,6.4-0.6,8.4 C27.9,79.8,27.9,80,27.9,80.2z"/><path fill="#d3a47d" d="M59.9 49.2l-.6-.1.2-1.8-1 .4-.2-.6 1.5-.6c.1 0 .2 0 .3 0s.1.2.1.3L59.9 49.2zM35.7 48.9l-.3-2.3c0-.1 0-.2.1-.3.1-.1.2-.1.3 0l1.5.7-.2.5-1-.4.2 1.8L35.7 48.9z"/><path fill="#472b29" d="M37 53.3C37 53.3 37 53.3 37 53.3c-.1 0-.2-.1-.2-.2l.2-8.6c0-.1.1-.2.2-.2.1 0 .2.1.2.2l-.2 8.6C37.2 53.2 37.1 53.3 37 53.3zM58.4 53.3c-.1 0-.2-.1-.2-.2l-.2-8.6c0-.1.1-.2.2-.2 0 0 0 0 0 0 .1 0 .2.1.2.2l.2 8.6C58.6 53.2 58.5 53.3 58.4 53.3 58.4 53.3 58.4 53.3 58.4 53.3z"/><path fill="#6d1b18" d="M44.2,54.7c0,0.2-0.1,0.3-0.1,0.5c0,1.4,1.5,2.5,3.4,2.5s3.4-1.1,3.4-2.5c0-0.2,0-0.3-0.1-0.5H44.2 z"/><path fill="#ee3e54" d="M49.4,57.3c-1.1-0.8-2.6-0.8-3.6,0C47,57.8,48.3,57.8,49.4,57.3z"/><path fill="#fdfcef" d="M45.2,54.7L45.2,54.7v0.4c0,0.4,0.5,0.7,1.1,0.7h2.6c0.6,0,1.1-0.3,1.1-0.7v-0.4l0,0H45.2z"/><path fill="#472b29" d="M47.6 57.9c-2 0-3.6-1.2-3.6-2.7 0-.2 0-.4.1-.5 0-.1.1-.1.2-.1H51c.1 0 .2.1.2.1 0 .2.1.3.1.5C51.3 56.7 49.6 57.9 47.6 57.9zM44.4 54.9c0 .1 0 .2 0 .3 0 1.3 1.4 2.3 3.2 2.3 1.8 0 3.2-1 3.2-2.3 0-.1 0-.2 0-.3H44.4zM47.7 62.4c-2.2 0-5.7-2.4-5.9-2.5-.1-.1-.1-.2-.1-.3.1-.1.2-.1.3-.1 0 0 3.9 2.6 5.8 2.4 2-.2 4.9-2.3 5-2.3.1-.1.3-.1.3.1.1.1.1.3-.1.3-.1.1-3.1 2.1-5.2 2.4C47.9 62.4 47.8 62.4 47.7 62.4z"/><path fill="#603535" d="M58,32.5c1.3,0.3,2.1,1.4,2.1,2.7c-0.1,2.2-1.6,11.7-1.6,11.7l-3.1-9.8L58,32.5z"/><path fill="#512c2b" d="M46.3,26.4l-1.2-1.6c0,0,13.1-1.5,13,5.8c0.2,5.4-3.4,10.1-8.5,11.6l0.7-2.6l-5.1,2.7l0.6-1.5 l-4.3,1.5l1.5-3.6L39.3,40c-0.9,2.2-1.5,4.5-2,6.8c0,0-3-10.1-1.1-10.9l-0.7-0.4l0.9-1.8l-1.4-0.6l1.2-1.7l-0.5-0.7l2.6-1.5 L37,28.6C37,28.6,41.3,25,46.3,26.4z"/><g><path fill="#fdfcee" d="M69.6 58.1A14.4 14.4 0 1 0 69.6 86.9A14.4 14.4 0 1 0 69.6 58.1Z"/><path fill="#472b29" d="M69.6,87.3c-8.2,0-14.8-6.6-14.8-14.8c0-8.2,6.6-14.8,14.8-14.8c8.2,0,14.8,6.6,14.8,14.8 C84.4,80.7,77.8,87.3,69.6,87.3z M69.6,58.5c-7.8,0-14.1,6.3-14.1,14.1s6.3,14.1,14.1,14.1s14.1-6.3,14.1-14.1 S77.3,58.5,69.6,58.5z"/></g><g><path fill="#ee3e54" d="M69.6 60.6A11.9 11.9 0 1 0 69.6 84.4A11.9 11.9 0 1 0 69.6 60.6Z"/><path fill="#472b29" d="M69.6,84.7c-6.7,0-12.2-5.5-12.2-12.2c0-6.7,5.5-12.2,12.2-12.2c6.7,0,12.2,5.5,12.2,12.2 C81.8,79.2,76.3,84.7,69.6,84.7z M69.6,60.8c-6.4,0-11.7,5.2-11.7,11.7s5.2,11.7,11.7,11.7S81.3,79,81.3,72.5S76,60.8,69.6,60.8z"/></g><path fill="#f4989e" d="M69.6,62.4c5.1,0,9.7,3.2,11.5,8 c-1.2-6.3-7.3-10.5-13.6-9.3c-4.7,0.9-8.4,4.6-9.3,9.3C59.9,65.6,64.5,62.4,69.6,62.4z" opacity=".79"/><path fill="#fdfcee" d="M73.2,77.4c-0.3,0-0.7-0.1-0.9-0.4l-2.7-2.7l-2.7,2.7c-0.2,0.2-0.6,0.4-0.9,0.4 c-0.3,0-0.7-0.1-0.9-0.4c-0.2-0.2-0.4-0.6-0.4-0.9c0-0.3,0.1-0.7,0.4-0.9l2.7-2.7l-2.7-2.7c-0.3-0.2-0.4-0.6-0.4-0.9 c0-0.7,0.6-1.3,1.3-1.3c0.3,0,0.7,0.1,0.9,0.4l2.7,2.7l2.7-2.7c0.2-0.2,0.6-0.4,0.9-0.4c0.7,0,1.3,0.6,1.3,1.3 c0,0.3-0.1,0.7-0.4,0.9l-2.7,2.7l2.7,2.7c0.2,0.2,0.4,0.6,0.4,0.9c0,0.3-0.1,0.7-0.4,0.9C73.9,77.3,73.6,77.4,73.2,77.4z"/><path fill="#472b29" d="M73.2,68c0.2,0,0.5,0.1,0.7,0.3c0.4,0.4,0.4,0.9,0,1.3l-3,3l3,3c0.2,0.2,0.3,0.4,0.3,0.7 c0,0.5-0.4,0.9-0.9,0.9c0,0,0,0,0,0c-0.2,0-0.5-0.1-0.7-0.3l-3-3l-3,3c-0.2,0.2-0.4,0.3-0.7,0.3c-0.5,0-0.9-0.4-0.9-0.9 c0,0,0,0,0,0c0-0.2,0.1-0.5,0.3-0.7l3-3l-3-3c-0.2-0.2-0.3-0.4-0.3-0.7c0-0.2,0.1-0.5,0.3-0.7c0.2-0.2,0.5-0.3,0.7-0.3 c0.2,0,0.5,0.1,0.7,0.3l3,3l3-3C72.8,68.1,73.1,68,73.2,68 M73.3,67.3c-0.4,0-0.9,0.2-1.2,0.5l-2.5,2.4l-2.4-2.4 c-0.7-0.7-1.7-0.7-2.4,0c-0.3,0.3-0.5,0.7-0.5,1.2c0,0.4,0.2,0.9,0.5,1.2l2.4,2.4L64.8,75c-0.3,0.3-0.5,0.7-0.5,1.2 c0,0.4,0.2,0.9,0.5,1.2c0.7,0.7,1.7,0.7,2.4,0l2.4-2.4l2.4,2.4c0.3,0.3,0.7,0.5,1.2,0.5c0.9,0,1.7-0.7,1.7-1.7c0,0,0,0,0,0 c0-0.4-0.2-0.8-0.4-1.1L72,72.5l2.4-2.4c0.7-0.7,0.7-1.7,0-2.4C74.1,67.4,73.7,67.2,73.3,67.3L73.3,67.3z"/></svg>