<?xml version="1.0" encoding="UTF-8"?>
<svg width="38px" height="38px" viewBox="0 0 38 38" version="1.1" xmlns="http://www.w3.org/2000/svg" xmlns:xlink="http://www.w3.org/1999/xlink">
    <!-- Generator: Sketch 64 (93537) - https://sketch.com -->
    <title>Artboard</title>
    <desc>Created with Sketch.</desc>
    <g id="Artboard" stroke="none" stroke-width="1" fill="none" fill-rule="evenodd">
        <g id="icons8-new-post" fill-rule="nonzero">
            <path d="M33,0.5 C32.7238576,0.5 32.5,0.723857625 32.5,1 C32.5,1.27614237 32.7238576,1.5 33,1.5 C33.2761424,1.5 33.5,1.27614237 33.5,1 C33.5,0.723857625 33.2761424,0.5 33,0.5 Z" id="Path" fill="#F1BC19"></path>
            <path d="M19,0 C8.50658975,0 -3.55271368e-15,8.50658975 -3.55271368e-15,19 C-3.55271368e-15,29.4934102 8.50658975,38 19,38 C29.4934102,38 38,29.4934102 38,19 C38,8.50658975 29.4934102,0 19,0 L19,0 Z" id="Path" fill="#F9DBD2"></path>
            <path d="M36,0 C34.8954305,0 34,0.8954305 34,2 C34,3.1045695 34.8954305,4 36,4 C37.1045695,4 38,3.1045695 38,2 C38,0.8954305 37.1045695,0 36,0 Z" id="Path" fill="#F1BC19"></path>
            <path d="M1,6 C0.44771525,6 0,6.44771525 0,7 C0,7.55228475 0.44771525,8 1,8 C1.55228475,8 2,7.55228475 2,7 C2,6.44771525 1.55228475,6 1,6 Z" id="Path" fill="#EE3E54"></path>
            <path d="M33,31.5 C32.4477153,31.5 32,31.9477153 32,32.5 C32,33.0522847 32.4477153,33.5 33,33.5 C33.5522847,33.5 34,33.0522847 34,32.5 C34,31.9477153 33.5522847,31.5 33,31.5 Z M2.5,31 C1.3954305,31 0.5,31.8954305 0.5,33 C0.5,34.1045695 1.3954305,35 2.5,35 C3.6045695,35 4.5,34.1045695 4.5,33 C4.5,31.8954305 3.6045695,31 2.5,31 Z" id="Shape" fill="#FBCD59"></path>
            <path d="M6,34.5 C5.44771525,34.5 5,34.9477153 5,35.5 C5,36.0522847 5.44771525,36.5 6,36.5 C6.55228475,36.5 7,36.0522847 7,35.5 C7,34.9477153 6.55228475,34.5 6,34.5 Z" id="Path" fill="#EE3E54"></path>
            <path d="M27.2415,32.017 C26.7979548,32.017 26.388102,32.2536285 26.1663294,32.63775 C25.9445568,33.0218714 25.9445568,33.4951286 26.1663294,33.87925 C26.388102,34.2633715 26.7979548,34.5 27.2415,34.5 C27.6850452,34.5 28.094898,34.2633715 28.3166706,33.87925 C28.5384432,33.4951286 28.5384432,33.0218714 28.3166706,32.63775 C28.094898,32.2536285 27.6850452,32.017 27.2415,32.017 L27.2415,32.017 Z M2,17.5 C1.72385763,17.5 1.5,17.7238576 1.5,18 C1.5,18.2761424 1.72385763,18.5 2,18.5 C2.27614237,18.5 2.5,18.2761424 2.5,18 C2.5,17.7238576 2.27614237,17.5 2,17.5 Z" id="Shape" fill="#FFFFFF"></path>
            <path d="M37,9 C36.7238576,9 36.5,9.22385763 36.5,9.5 C36.5,9.77614237 36.7238576,10 37,10 C37.2761424,10 37.5,9.77614237 37.5,9.5 C37.5,9.22385763 37.2761424,9 37,9 Z" id="Path" fill="#F1BC19"></path>
            <path d="M34,26 C33.4477153,26 33,26.4477153 33,27 C33,27.5522847 33.4477153,28 34,28 C34.5522847,28 35,27.5522847 35,27 C35,26.4477153 34.5522847,26 34,26 Z" id="Path" fill="#FFFFFF"></path>
            <g id="Group" transform="translate(6.500000, 10.500000)">
                <path d="M24.5,3.5 L24.5,13.5 C24.5,14.455 24.055,15.305 23.36,15.855 C22.85,16.26 22.205,16.5 21.5,16.5 L3.5,16.5 C2.795,16.5 2.145,16.26 1.635,15.845 C0.945,15.3 0.5,14.45 0.5,13.5 L0.5,3.5 C0.5,2.47 1.025,1.555 1.82,1.025 C1.845,1 1.875,0.98 1.9,0.965 C2.36,0.67 2.91,0.5 3.5,0.5 L21.5,0.5 C22.09,0.5 22.64,0.67 23.1,0.965 C23.125,0.98 23.155,1 23.18,1.025 C23.975,1.555 24.5,2.47 24.5,3.5 Z" id="Path" fill="#78A0CF"></path>
                <path d="M23.36,15.855 C22.85,16.26 22.205,16.5 21.5,16.5 L3.5,16.5 C2.795,16.5 2.145,16.26 1.635,15.845 L12.5,6.475 L23.36,15.855 Z" id="Path" fill="#457FAF"></path>
                <path d="M23.18,1.025 L12.5,9.81 L1.82,1.025 C1.845,1 1.875,0.98 1.9,0.965 C2.36,0.67 2.91,0.5 3.5,0.5 L21.5,0.5 C22.09,0.5 22.64,0.67 23.1,0.965 C23.125,0.98 23.155,1 23.18,1.025 Z" id="Path" fill="#C5DEF0"></path>
                <path d="M12.5,10 C12.458,10 12.4155,9.986 12.381,9.9575 L1.773,1.2335 C1.693,1.168 1.6815,1.0495 1.7475,0.9695 C1.8135,0.8895 1.932,0.878 2.0115,0.944 L12.5,9.57 L22.989,0.9445 C23.0685,0.8785 23.1865,0.89 23.253,0.97 C23.319,1.05 23.307,1.168 23.2275,1.234 L12.619,9.9575 C12.5845,9.986 12.542,10 12.5,10 Z M1.613,16.0655 C1.5605,16.0655 1.5085,16.0435 1.471,16.0005 C1.4035,15.922 1.412,15.8035 1.4905,15.736 L8.6385,9.542 C8.716,9.4735 8.8355,9.4815 8.903,9.56 C8.971,9.638 8.9635,9.7565 8.885,9.8245 L7.0215,11.452 L1.7355,16.02 C1.7,16.051 1.6565,16.0655 1.613,16.0655 Z" id="Shape" fill="#472B29"></path>
                <path d="M21.5,0.7 C23.044,0.7 24.3,1.956 24.3,3.5 L24.3,13.5 C24.3,15.044 23.044,16.3 21.5,16.3 L3.5,16.3 C1.956,16.3 0.7,15.044 0.7,13.5 L0.7,3.5 C0.7,1.956 1.956,0.7 3.5,0.7 L21.5,0.7 L21.5,0.7 Z M21.5,0 L3.5,0 C1.567,0 0,1.567 0,3.5 L0,13.5 C0,15.433 1.567,17 3.5,17 L21.5,17 C23.433,17 25,15.433 25,13.5 L25,3.5 C25,1.567 23.433,0 21.5,0 L21.5,0 Z" id="Shape" fill="#472B29"></path>
                <path d="M23.387,16.0655 C23.3435,16.0655 23.2995,16.0505 23.264,16.0195 L16.1195,9.825 C16.041,9.757 16.033,9.6385 16.1005,9.5605 C16.168,9.4825 16.287,9.4745 16.365,9.5415 L23.51,15.736 C23.5885,15.804 23.5965,15.9225 23.529,16.0005 C23.4915,16.0435 23.4395,16.0655 23.387,16.0655 Z" id="Path" fill="#472B29"></path>
            </g>
        </g>
        <g id="Group" transform="translate(21.000000, 23.000000)" fill-rule="nonzero">
            <path d="M7.8,0.2 C3.8235498,0.2 0.6,3.4235498 0.6,7.4 C0.6,11.3764502 3.8235498,14.6 7.8,14.6 C11.7764502,14.6 15,11.3764502 15,7.4 C15,3.4235498 11.7764502,0.2 7.8,0.2 Z" id="Path" fill="#FDFCEE"></path>
            <path d="M7.8,14.8 C3.7,14.8 0.4,11.5 0.4,7.4 C0.4,3.3 3.7,0 7.8,0 C11.9,0 15.2,3.3 15.2,7.4 C15.2,11.45 11.9,14.8 7.8,14.8 Z M7.8,0.35 C3.9,0.35 0.75,3.5 0.75,7.4 C0.75,11.3 3.9,14.45 7.8,14.45 C11.7,14.45 14.85,11.3 14.85,7.4 C14.85,3.5 11.65,0.35 7.8,0.35 Z" id="Shape" fill="#472B29"></path>
        </g>
        <g id="Group" transform="translate(22.500000, 24.000000)" fill-rule="nonzero">
            <path d="M6.3,0.45 C3.01390574,0.45 0.35,3.11390574 0.35,6.4 C0.35,9.68609426 3.01390574,12.35 6.3,12.35 C9.58609426,12.35 12.25,9.68609426 12.25,6.4 C12.25,3.11390574 9.58609426,0.45 6.3,0.45 Z" id="Path" fill="#93BC39"></path>
            <path d="M6.3,12.5 C2.95,12.5 0.2,9.75 0.2,6.4 C0.2,3.05 2.95,0.3 6.3,0.3 C9.65,0.3 12.4,3.05 12.4,6.4 C12.4,9.75 9.65,12.5 6.3,12.5 Z M6.3,0.55 C3.1,0.55 0.45,3.15 0.45,6.4 C0.45,9.65 3.05,12.25 6.3,12.25 C9.55,12.25 12.15,9.65 12.15,6.4 C12.15,3.15 9.5,0.55 6.3,0.55 Z" id="Shape" fill="#472B29"></path>
        </g>
        <path d="M28.8,25.3 C31.35,25.3 33.65,26.9 34.55,29.3 C33.95,26.1 30.85,24.05 27.7,24.65 C25.35,25.1 23.5,26.95 23.05,29.3 C23.95,26.9 26.2,25.3 28.8,25.3 Z" id="Path" fill="#C0D078" fill-rule="nonzero" opacity="0.79"></path>
        <path d="M27.95,33.3 C27.8,33.3 27.7,33.25 27.6,33.15 L25.7,31.2 C25.5,31 25.5,30.7 25.7,30.5 C25.8,30.4 25.9,30.35 26.05,30.35 C26.2,30.35 26.3,30.4 26.4,30.5 L27.9,32.1 L31.1,28.55 C31.2,28.45 31.35,28.4 31.45,28.4 C31.75,28.4 31.95,28.6 31.95,28.9 C31.95,29.05 31.9,29.15 31.8,29.25 L28.25,33.2 C28.2,33.25 28.05,33.35 27.95,33.3 L27.95,33.3 L27.95,33.3 Z" id="Path" fill="#FDFCEE" fill-rule="nonzero"></path>
        <path d="M31.5,28.55 C31.65,28.55 31.8,28.7 31.8,28.9 C31.8,28.95 31.8,29 31.75,29.05 L28.2,33 C28.15,33.05 28.05,33.1 28,33.1 L28,33.1 C27.9,33.1 27.85,33.05 27.8,33 L25.9,31.05 C25.8,30.95 25.8,30.75 25.9,30.6 C26,30.5 26.2,30.5 26.35,30.6 L26.35,30.6 L28,32.3 L31.35,28.6 C31.35,28.6 31.45,28.55 31.5,28.55 M31.5,28.15 L31.5,28.15 C31.3,28.15 31.15,28.25 31,28.35 L27.9,31.75 L26.5,30.3 C26.25,30.05 25.8,30.05 25.5,30.3 C25.25,30.55 25.25,30.95 25.5,31.25 L27.4,33.2 C27.65,33.5 28.1,33.5 28.4,33.2 C28.4,33.2 28.4,33.2 28.4,33.2 L31.95,29.25 C32.2,29 32.2,28.55 31.95,28.3 C31.95,28.3 31.95,28.3 31.9,28.25 C31.8,28.2 31.65,28.15 31.5,28.15 L31.5,28.15 Z" id="Shape" fill="#472B29" fill-rule="nonzero"></path>
    </g>
</svg>